<?xml version="1.0" encoding="utf-8"?>
<!-- Generator: Adobe Illustrator 16.2.1, SVG Export Plug-In . SVG Version: 6.00 Build 0)  -->
<!DOCTYPE svg PUBLIC "-//W3C//DTD SVG 1.1//EN" "http://www.w3.org/Graphics/SVG/1.1/DTD/svg11.dtd">
<svg version="1.1" id="Layer_1" xmlns="http://www.w3.org/2000/svg" xmlns:xlink="http://www.w3.org/1999/xlink" x="0px" y="0px"
	 width="195px" height="202.565px" viewBox="122 121.568 195 202.565" enable-background="new 122 121.568 195 202.565"
	 xml:space="preserve">
<rect x="140.332" y="213.618" fill="#969696" width="50.106" height="1.336"/>
<g>
	<path d="M160.82,208.667c-0.668,0.089-0.911-0.05-1.312-0.284c-0.324-0.188-0.726-0.421-1.316-0.503
		c-0.754-0.104-1.483,0.276-2.125,0.611c-0.194,0.102-0.486,0.253-0.686,0.328c-0.046-0.191-0.098-0.587-0.057-1.354
		c0.021-0.376-0.198-0.725-0.546-0.87c-0.349-0.145-0.75-0.055-1.003,0.224c-0.156,0.172-0.317,0.381-0.504,0.624
		c-0.422,0.546-1.208,1.564-1.73,1.612c-0.047,0.004-0.157,0.015-0.356-0.164c-0.03-0.028-0.058-0.058-0.084-0.091
		c1.257-2.163,2.057-5.181,1.923-6.597c-0.029-0.313-0.222-0.587-0.507-0.723c-0.285-0.134-0.619-0.109-0.879,0.068
		c-1.235,0.835-2.447,3.468-2.593,5.635c-0.035,0.514-0.009,0.985,0.078,1.407c-0.179,0.241-0.364,0.454-0.556,0.626
		c-0.332,0.3-0.625,0.427-0.871,0.38c-0.535-0.106-0.809-0.896-0.943-1.913c0.003-0.086-0.008-0.172-0.029-0.255
		c-0.14-1.313-0.076-2.922-0.035-3.942c0.033-0.817,0.06-1.521,0.024-2.037c0.004-0.065-0.003-0.115-0.012-0.171
		c-0.003-0.021-0.011-0.04-0.016-0.061c-0.007-0.029-0.013-0.059-0.023-0.088c-0.009-0.028-0.021-0.053-0.032-0.079
		c-0.013-0.028-0.025-0.055-0.04-0.081c-0.014-0.024-0.029-0.045-0.045-0.068c-0.018-0.025-0.036-0.05-0.056-0.074
		c-0.016-0.018-0.034-0.036-0.052-0.053c-0.023-0.023-0.048-0.045-0.074-0.066c-0.018-0.013-0.037-0.025-0.055-0.038
		c-0.03-0.019-0.059-0.037-0.09-0.053c-0.02-0.01-0.039-0.017-0.059-0.025c-0.033-0.014-0.066-0.026-0.102-0.036
		c-0.021-0.006-0.045-0.009-0.067-0.014c-0.034-0.007-0.067-0.013-0.102-0.016c-0.028-0.001-0.056,0-0.083,0
		c-0.022,0-0.043-0.002-0.066,0c-0.009,0-0.018,0.004-0.028,0.005c-0.009,0.001-0.019,0-0.028,0.002
		c-0.01,0.002-0.02,0.008-0.03,0.01c-0.077,0.015-0.149,0.037-0.217,0.07c-0.008,0.003-0.017,0.006-0.025,0.01
		c-0.071,0.037-0.134,0.085-0.192,0.139c-0.014,0.012-0.026,0.024-0.039,0.038c-0.055,0.057-0.104,0.119-0.142,0.189
		c-0.002,0.005-0.004,0.01-0.006,0.015c-0.034,0.066-0.058,0.138-0.076,0.212c-0.002,0.011-0.009,0.02-0.01,0.031
		c-0.161,0.467-1.239,2.837-2.251,5.028c-0.854,0.059-1.47,0.204-1.903,0.448c-0.429,0.24-0.582,0.784-0.341,1.213
		s0.784,0.583,1.213,0.342c0.027-0.015,0.071-0.035,0.128-0.055c-0.495,1.06-0.87,1.855-0.947,2.004
		c-0.232,0.419-0.089,0.95,0.327,1.197c0.142,0.084,0.298,0.124,0.453,0.124c0.304,0,0.601-0.156,0.768-0.438
		c0.077-0.131,0.79-1.651,1.453-3.078c0.573,0.016,0.896,0.098,1.195,0.221c0.276,1.566,0.914,2.812,2.312,3.089
		c0.134,0.027,0.285,0.044,0.451,0.044c0.537,0,1.224-0.185,1.96-0.85c0.096-0.086,0.19-0.179,0.284-0.278
		c0.627,0.538,1.247,0.606,1.661,0.569c0.811-0.075,1.497-0.598,2.07-1.204c0.134,0.324,0.333,0.596,0.627,0.785
		c0.824,0.53,1.749,0.047,2.491-0.34c0.324-0.169,0.867-0.457,1.057-0.425c0.243,0.034,0.411,0.131,0.665,0.279
		c0.493,0.286,1.169,0.679,2.442,0.509c0.488-0.064,0.83-0.514,0.765-1.001C161.756,208.945,161.308,208.604,160.82,208.667z
		 M144.637,206.317c0.073-0.157,0.143-0.309,0.211-0.457c0.002,0.165,0.006,0.329,0.011,0.492
		C144.789,206.339,144.712,206.329,144.637,206.317z"/>
	<path d="M190.214,207.657c-0.299-0.39-0.858-0.464-1.25-0.164c-1.475,1.131-2.472,1.824-3.886,1.911
		c-0.596,0.036-1.17-0.185-1.778-0.418c-0.682-0.262-1.458-0.562-2.344-0.509c-0.578,0.035-1.052,0.348-1.471,0.624
		c-0.174,0.115-0.455,0.299-0.59,0.336c-0.165-0.197-0.276-0.957-0.33-1.331c-0.063-0.429-0.122-0.834-0.25-1.172
		c-0.115-0.305-0.386-0.523-0.709-0.568c-0.322-0.046-0.644,0.088-0.839,0.349l-0.124,0.167c-0.31,0.419-0.597,0.785-0.861,1.104
		c0.086-0.598,0.041-1.178-0.189-1.658c-0.364-0.762-1.134-1.166-2.107-1.112c-0.38,0.021-0.732,0.163-1.042,0.411
		c0.324-1.467,0.642-2.719,0.974-3.374c0.192-0.38,0.087-0.845-0.249-1.106c-0.337-0.261-0.812-0.249-1.133,0.033
		c-0.504,0.44-1.017,1.035-1.611,1.722c-1.486,1.716-3.334,3.855-6.243,5.107c-0.453,0.195-0.662,0.718-0.466,1.171
		c0.194,0.452,0.718,0.66,1.171,0.466c2.569-1.107,4.404-2.821,5.808-4.356c-0.123,0.56-0.248,1.15-0.376,1.763
		c-0.052,0.246-0.106,0.501-0.162,0.767c-0.138,0.076-0.278,0.152-0.419,0.229c-2.229,1.209-4.756,2.58-6.034,4.934
		c-0.676,1.244-0.888,3.166,0.014,4.435c0.329,0.461,1.051,1.158,2.418,1.158c0.23,0,0.479-0.02,0.748-0.063
		c2.333-0.383,3.53-3.836,4.471-7.843c0.179,0.431,0.463,0.786,0.883,0.988c1.697,0.815,3.47-0.788,4.742-2.301
		c0.186,0.766,0.533,1.511,1.35,1.786c0.864,0.291,1.601-0.195,2.138-0.549c0.181-0.119,0.484-0.32,0.595-0.332
		c0.501-0.028,1.01,0.166,1.598,0.392c0.725,0.279,1.545,0.596,2.528,0.534c2.059-0.127,3.483-1.219,4.86-2.275
		C190.439,208.607,190.514,208.047,190.214,207.657z M166.595,216.748c-1.042,0.17-1.329-0.234-1.424-0.368
		c-0.396-0.556-0.349-1.724,0.1-2.551c0.873-1.607,2.583-2.704,4.372-3.701C168.902,213.249,167.887,216.536,166.595,216.748z
		 M172.946,209.756c-0.009-0.015-0.017-0.031-0.025-0.049c-0.06-0.341-0.067-0.875,0.073-1.485c0.192-0.836,0.516-1.196,0.593-1.23
		c0.396-0.024,0.413,0.074,0.442,0.246C174.171,208.09,173.394,209.451,172.946,209.756z"/>
</g>
<g>
	<path d="M315.937,315.894l-17.427-36.712l9.348-42.784c0.321-1.471-0.035-3.008-0.969-4.188L279.27,197.31
		c-0.952-1.204-2.403-1.905-3.938-1.905H262.88v-57.276c0-2.774-2.249-5.022-5.022-5.022H127.521c-2.773,0-5.021,2.249-5.021,5.022
		v89.96v89.958c0,2.774,2.249,5.022,5.021,5.022h130.336c2.773,0,5.022-2.249,5.022-5.022v-21.155
		c-0.006-0.001-0.013-0.003-0.02-0.005c-0.192-2.598-2.356-4.647-5.003-4.647c-3.004,0-7.514-3.041-11.93-17.53
		c-3.909-12.816-15.794-53.167-17.035-59.274c0.239-0.938,0.657-1.003,1.032-1.061c2.229-0.348,6.729,1.821,9.027,6.648
		c7.339,15.423,16.925,34.222,17.021,34.411c0.659,1.295,1.849,2.238,3.258,2.591c1.409,0.352,2.903,0.076,4.094-0.757l11.284-7.891
		c2.273-1.589,2.828-4.72,1.238-6.993s-4.722-2.828-6.994-1.239l-5.974,4.177v-17.232v-22.64h10.022l24.633,31.129l-9.204,42.138
		c-0.237,1.085-0.107,2.22,0.369,3.225l18.162,38.262c0.86,1.81,2.662,2.868,4.54,2.868c0.723,0,1.456-0.156,2.151-0.486
		C316.06,321.395,317.127,318.4,315.937,315.894z M252.835,301.423v11.603H132.544v-79.914h90.696
		c0.877,3.085,1.921,6.717,3.164,11.007c0.632,2.181,1.268,4.362,1.896,6.512h-35.271v7.011h37.328
		c0.608,2.064,1.196,4.057,1.755,5.939h-39.083v7.009h41.168c0.73,2.444,1.341,4.474,1.783,5.938h-42.951v7.013h45.266
		C240.769,290.057,245.22,298.698,252.835,301.423z M228.381,204.449c-5.218,0.812-8.787,4.62-9.545,10.183
		c-0.122,0.889-0.213,1.561,1.617,8.435h-87.909v-79.915h120.291v79.915h-1.755c-1.042-2.146-2.07-4.284-3.058-6.36
		C244.154,208.579,235.707,203.31,228.381,204.449z"/>
	<rect x="193.029" y="289.478" width="26.877" height="7.011"/>
	<path d="M161.933,275.557c6.964,0,12.606-5.641,12.606-12.601c0-6.963-5.643-12.604-12.606-12.604
		c-6.96,0-12.601,5.642-12.601,12.604C149.332,269.917,154.973,275.557,161.933,275.557z"/>
	<path d="M140.832,284.273v12.216h42.206v-12.216c0,0-8.499-3.893-21.105-3.893C149.332,280.38,140.832,284.273,140.832,284.273z"/>
</g>
<polygon fill="#00823B" points="164.609,179.01 164.609,121.568 158.372,121.568 158.372,179.01 152.159,179.01 161.49,195.169 
	170.821,179.01 "/>
</svg>
